<?xml version="1.0" encoding="UTF-8" standalone="no"?>
<svg
   xmlns:sketch="http://www.bohemiancoding.com/sketch/ns"
   xmlns:dc="http://purl.org/dc/elements/1.1/"
   xmlns:cc="http://creativecommons.org/ns#"
   xmlns:rdf="http://www.w3.org/1999/02/22-rdf-syntax-ns#"
   xmlns:svg="http://www.w3.org/2000/svg"
   xmlns="http://www.w3.org/2000/svg"
   xmlns:sodipodi="http://sodipodi.sourceforge.net/DTD/sodipodi-0.dtd"
   xmlns:inkscape="http://www.inkscape.org/namespaces/inkscape"
   width="32"
   height="32"
   viewBox="0 0 32 32"
   version="1.1"
   id="svg2"
   inkscape:version="0.91 r13725"
   sodipodi:docname="icon.svg"
   inkscape:export-filename="D:\git\trello\dist\icon32.png"
   inkscape:export-xdpi="90"
   inkscape:export-ydpi="90">
  <metadata
     id="metadata19">
    <rdf:RDF>
      <cc:Work
         rdf:about="">
        <dc:format>image/svg+xml</dc:format>
        <dc:type
           rdf:resource="http://purl.org/dc/dcmitype/StillImage" />
        <dc:title>trello-mark-white</dc:title>
      </cc:Work>
    </rdf:RDF>
  </metadata>
  <sodipodi:namedview
     pagecolor="#ffffff"
     bordercolor="#666666"
     borderopacity="1"
     objecttolerance="10"
     gridtolerance="10"
     guidetolerance="10"
     inkscape:pageopacity="0"
     inkscape:pageshadow="2"
     inkscape:window-width="1920"
     inkscape:window-height="1017"
     id="namedview17"
     showgrid="false"
     inkscape:zoom="4.72"
     inkscape:cx="-27.738097"
     inkscape:cy="3.5584497"
     inkscape:window-x="-8"
     inkscape:window-y="-8"
     inkscape:window-maximized="1"
     inkscape:current-layer="svg2" />
  <!-- Generator: Sketch 3.4.3 (16044) - http://www.bohemiancoding.com/sketch -->
  <title
     id="title4">trello-mark-white</title>
  <desc
     id="desc6">Created with Sketch.</desc>
  <rect
     style="opacity:1;fill:#3f9bf8;fill-opacity:1;stroke:none"
     id="rect4147"
     width="32"
     height="32"
     x="0"
     y="0"
     ry="3.0097129" />
  <defs
     id="defs8" />
  <g
     id="Page-1"
     sketch:type="MSPage"
     transform="matrix(0.1,0,0,0.1,6,6)"
     style="fill:none;fill-rule:evenodd;stroke:none;stroke-width:1">
    <g
       id="Original-Assets"
       sketch:type="MSArtboardGroup"
       transform="translate(-2789,-298)"
       style="fill:#ffffff">
      <g
         id="Group"
         sketch:type="MSLayerGroup"
         transform="translate(229,198)">
        <g
           id="Trello-Logo"
           sketch:type="MSShapeGroup">
          <g
             id="Trello-Mark---White"
             transform="translate(2460,0)">
            <g
               id="Logo"
               transform="translate(100,100)">
              <path
                 d="M 25.001381,0 C 11.1935,0 0,11.199438 0,25.001381 L 0,174.99862 C 0,188.8065 11.199438,200 25.001381,200 l 149.997239,0 C 188.8065,200 200,188.80056 200,174.99862 L 200,25.001381 C 200,11.1935 188.80056,0 174.99862,0 L 25.001381,0 Z M 124.99704,26 C 118.37126,26 113,31.374599 113,38.005909 l 0,63.488181 c 0,6.63068 5.37323,12.00591 11.99704,12.00591 l 37.00592,0 C 168.62874,113.5 174,108.1254 174,101.49409 l 0,-63.488181 C 174,31.375228 168.62677,26 162.00296,26 l -37.00592,0 z M 37.997036,26 C 31.371256,26 26,31.369044 26,37.991644 L 26,151.50836 C 26,158.13116 31.373226,163.5 37.997036,163.5 l 37.005928,0 C 81.628744,163.5 87,158.13096 87,151.50836 L 87,37.991644 C 87,31.368842 81.626774,26 75.002964,26 l -37.005928,0 z"
                 id="Board"
                 inkscape:connector-curvature="0" />
            </g>
          </g>
        </g>
      </g>
    </g>
  </g>
</svg>
